<svg width="25" height="40" viewBox="0 0 40 40"  xmlns="http://www.w3.org/2000/svg">
<g clip-path="url(#clip0_173_2164)">
<path d="M33.3335 13.0399L23.3335 4.27322C22.4168 3.4533 21.23 3 20.0002 3C18.7703 3 17.5835 3.4533 16.6668 4.27322L6.66682 13.0399C6.13744 13.5133 5.71499 14.0941 5.42761 14.7436C5.14023 15.3931 4.99451 16.0964 5.00016 16.8066V31.3732C5.00016 32.6993 5.52694 33.9711 6.46462 34.9088C7.40231 35.8464 8.67408 36.3732 10.0002 36.3732H30.0002C31.3262 36.3732 32.598 35.8464 33.5357 34.9088C34.4734 33.9711 35.0002 32.6993 35.0002 31.3732V16.7899C35.0034 16.0825 34.8566 15.3825 34.5693 14.736C34.282 14.0896 33.8608 13.5115 33.3335 13.0399ZM23.3335 33.0399H16.6668V24.7066C16.6668 24.2645 16.8424 23.8406 17.155 23.528C17.4675 23.2155 17.8915 23.0399 18.3335 23.0399H21.6668C22.1089 23.0399 22.5328 23.2155 22.8453 23.528C23.1579 23.8406 23.3335 24.2645 23.3335 24.7066V33.0399ZM31.6668 31.3732C31.6668 31.8152 31.4912 32.2392 31.1787 32.5517C30.8661 32.8643 30.4422 33.0399 30.0002 33.0399H26.6668V24.7066C26.6668 23.3805 26.14 22.1087 25.2024 21.171C24.2647 20.2333 22.9929 19.7066 21.6668 19.7066H18.3335C17.0074 19.7066 15.7356 20.2333 14.798 21.171C13.8603 22.1087 13.3335 23.3805 13.3335 24.7066V33.0399H10.0002C9.55813 33.0399 9.13421 32.8643 8.82165 32.5517C8.50909 32.2392 8.33349 31.8152 8.33349 31.3732V16.7899C8.33379 16.5532 8.38448 16.3194 8.48219 16.1039C8.57989 15.8883 8.72238 15.6961 8.90016 15.5399L18.9002 6.78989C19.2043 6.52269 19.5953 6.37533 20.0002 6.37533C20.405 6.37533 20.796 6.52269 21.1002 6.78989L31.1002 15.5399C31.2779 15.6961 31.4204 15.8883 31.5181 16.1039C31.6158 16.3194 31.6665 16.5532 31.6668 16.7899V31.3732Z" fill="#401b1b"/>
</g>
<defs>
<clipPath id="clip0_173_2164">
<rect width="40" height="40" fill="white"/>
</clipPath>
</defs>
</svg>
