<svg width="25" height="40" viewBox="0 0 40 40" fill="none" xmlns="http://www.w3.org/2000/svg">
<g clip-path="url(#clip0_205_1195)">
<path d="M31.6667 23.3335V17.3335C31.6667 15.4479 31.6667 14.5051 31.0809 13.9193C30.4951 13.3335 29.5523 13.3335 27.6667 13.3335H21.6569C20.8394 13.3335 20.4306 13.3335 20.0631 13.1813C19.6955 13.029 19.4065 12.74 18.8284 12.1619L16.1716 9.50507C15.5935 8.92701 15.3045 8.63798 14.9369 8.48574C14.5694 8.3335 14.1606 8.3335 13.3431 8.3335H9C7.11438 8.3335 6.17157 8.3335 5.58579 8.91928C5 9.50507 5 10.4479 5 12.3335V27.6668C5 29.5524 5 30.4953 5.58579 31.081C6.17157 31.6668 7.11438 31.6668 9 31.6668H23.3333" stroke="#993322" stroke-width="3.3"/>
<path d="M26.6665 31.6665H31.6665M31.6665 31.6665H36.6665M31.6665 31.6665V36.6665M31.6665 31.6665V26.6665" stroke="#401B1B" stroke-width="2"/>
</g>
<defs>
<clipPath id="clip0_205_1195">
<rect width="40" height="40" fill="white"/>
</clipPath>
</defs>
</svg>
