<svg xmlns="http://www.w3.org/2000/svg" xmlns:xlink="http://www.w3.org/1999/xlink" width="500" zoomAndPan="magnify" viewBox="0 0 375 374.999991" height="500" preserveAspectRatio="xMidYMid meet" version="1.0"><defs><clipPath id="101908fbaa"><path d="M 80 38 L 292 38 L 292 337.5 L 80 337.5 Z M 80 38 " clip-rule="nonzero"/></clipPath></defs><rect x="-37.5" width="450" fill="#ffffff" y="-37.499999" height="449.999989" fill-opacity="1"/><rect x="-37.5" width="450" fill="#ffffff" y="-37.499999" height="449.999989" fill-opacity="1"/><g clip-path="url(#101908fbaa)"><path fill="#636576" d="M 166.746094 104.796875 C 168.214844 107.699219 169.140625 110.699219 171.335938 113.160156 C 171.910156 113.804688 172.609375 115.023438 173.203125 116.460938 C 173.539062 115.34375 174.011719 114.363281 174.558594 113.496094 C 174.472656 113.316406 174.429688 113.148438 174.433594 113 C 174.550781 108.199219 177.550781 100.160156 181.269531 98.722656 C 184.988281 97.28125 190.269531 96.082031 192.789062 95.960938 C 194.335938 95.886719 196.5625 95.136719 198.050781 94.5625 C 187.332031 92.230469 176.734375 89.921875 168.445312 88.117188 C 168.230469 88.40625 168 88.6875 167.828125 88.976562 C 167.082031 90.253906 166.507812 91.546875 165.664062 92.757812 C 164.957031 93.769531 164.230469 94.972656 163.433594 96.125 C 164.34375 99.082031 165.332031 102.003906 166.746094 104.796875 Z M 231.300781 109.398438 C 233.460938 110.71875 234.65625 113 235.136719 114.316406 C 235.511719 115.347656 238.730469 118.125 239.5625 122.484375 C 241.636719 117.597656 244.371094 115.253906 243.667969 113.367188 C 242.710938 110.792969 237.898438 107.101562 237.898438 104.359375 C 237.898438 104.097656 237.96875 103.726562 238.09375 103.285156 C 235.289062 102.671875 231.953125 101.945312 228.246094 101.140625 C 228.179688 105.628906 227.246094 106.921875 231.300781 109.398438 Z M 83.476562 61.058594 C 83.886719 61.003906 82.484375 60.726562 105.007812 66.027344 C 107.5 58.222656 110.679688 54.167969 112.171875 51.902344 C 114.742188 47.996094 118.011719 44.324219 121.9375 41.75 C 126.253906 38.921875 131.25 37.546875 136.117188 39.058594 C 139.925781 40.238281 141.613281 40.617188 143.757812 41.945312 C 147.324219 44.164062 149.859375 47.664062 151.570312 51.484375 C 154.847656 58.796875 155.398438 67.722656 154.382812 75.769531 C 154.753906 75.785156 155.359375 76.027344 155.792969 76.347656 C 156.164062 75.746094 156.703125 75.703125 157.269531 76.164062 C 158.074219 75.578125 159.597656 76.5625 160.25 77.226562 C 160.613281 76.789062 161.316406 76.933594 161.753906 77.25 C 162.144531 77.535156 162.5625 77.984375 162.945312 78.496094 C 162.90625 77.429688 163.042969 76.027344 164.105469 76.0625 C 165.03125 76.089844 165.339844 77.34375 165.796875 77.964844 C 166.730469 79.226562 168.523438 79.253906 168.636719 81.742188 L 207.894531 90.910156 C 210.019531 90.300781 212.074219 89.925781 212.570312 89.214844 C 213.203125 88.308594 213.476562 85.957031 213.296875 84.6875 C 213.269531 84.527344 213.207031 84.289062 213.109375 83.992188 C 212.941406 84.265625 212.773438 84.539062 212.632812 84.832031 C 212.664062 83.445312 212.15625 82.1875 211.820312 80.890625 C 211.738281 80.722656 211.65625 80.554688 211.578125 80.382812 C 211.554688 80.765625 211.730469 81.117188 211.851562 81.460938 C 210.820312 80.492188 210.175781 78.699219 210.074219 77.332031 C 209.949219 77.742188 209.835938 78.179688 209.863281 78.613281 C 209.539062 76.585938 208.78125 75.957031 209.3125 71.5625 C 209.121094 71.816406 208.917969 72.242188 208.921875 72.570312 C 208.839844 71.4375 209.039062 70.214844 209.257812 69.105469 C 209.378906 68.484375 209.453125 67.738281 209.71875 67.152344 C 209.878906 66.804688 210.15625 66.515625 210.3125 66.1875 C 209.976562 66.585938 209.371094 66.691406 209.082031 67.152344 C 209.289062 65.695312 210.429688 63.90625 211.566406 63.015625 C 211.121094 62.957031 210.363281 63.136719 210.066406 63.390625 C 210.589844 62.664062 211.28125 62.066406 212.125 61.71875 C 212.609375 61.519531 213.355469 61.222656 214.007812 61.191406 C 214.222656 60.101562 214.972656 59.140625 215.84375 58.410156 C 216.734375 57.660156 217.609375 56.96875 218.675781 56.496094 C 219.765625 56.011719 220.703125 55.253906 221.382812 54.265625 C 221.464844 55.121094 220.261719 56.417969 219.523438 56.746094 C 220.664062 56.832031 221.492188 55.753906 222.0625 54.933594 C 221.953125 55.578125 221.679688 56.207031 221.332031 56.792969 C 227.394531 54.445312 228.917969 55.835938 230.832031 53.789062 C 230.6875 54.566406 229.511719 55.003906 229.226562 55.671875 C 229.867188 55.71875 230.421875 55.796875 231.078125 55.738281 C 231.960938 55.660156 232.777344 55.65625 233.621094 54.628906 C 233.347656 55.765625 231.480469 56.273438 230.367188 56.492188 C 231.761719 56.585938 234.046875 56.253906 234.472656 54.953125 C 234.523438 55.40625 233.90625 56.035156 233.605469 56.304688 C 233 56.847656 232.175781 57.167969 231.371094 57.367188 C 232.671875 57.242188 233.855469 56.832031 234.636719 55.691406 C 234.445312 56.183594 234.585938 56.742188 233.90625 57.632812 C 234.65625 57.050781 235.535156 55.8125 235.464844 54.855469 C 235.679688 55.3125 235.554688 56.054688 235.5 56.535156 C 235.457031 56.921875 235.390625 57.46875 235.148438 57.796875 C 236.085938 56.78125 236.417969 54.96875 236.238281 54.367188 C 236.511719 54.871094 236.628906 55.453125 236.652344 56.039062 C 236.890625 55.628906 237.164062 55.21875 237.421875 54.757812 C 237.160156 55.503906 237.179688 56.605469 237.371094 57.371094 C 237.453125 57.699219 237.664062 58.265625 237.652344 58.609375 C 237.695312 57.746094 238.074219 56.710938 237.996094 55.808594 C 238.882812 56.929688 238.996094 59.285156 238.34375 60.535156 C 239.136719 59.703125 239.632812 58.613281 239.945312 57.542969 C 240.144531 58.847656 239.964844 60.128906 239.359375 61.109375 C 240.15625 60.457031 240.605469 59.613281 240.894531 58.601562 C 240.773438 59.808594 240.914062 61.144531 240.128906 62.167969 C 240.738281 61.640625 241.113281 61.140625 241.507812 60.445312 C 241.089844 62.246094 240.246094 63.171875 238.839844 64.234375 C 239.738281 66.222656 239.738281 68.300781 240.191406 69.292969 C 241.566406 72.316406 240.28125 71.894531 240.28125 73.003906 C 240.28125 73.230469 240.097656 73.488281 239.875 73.78125 C 239.945312 74.050781 240.101562 74.269531 240.5 74.335938 C 240.304688 74.398438 240.074219 74.386719 239.90625 74.277344 C 239.925781 74.410156 240.0625 74.566406 240.128906 74.59375 C 239.851562 74.609375 239.601562 74.554688 239.375 74.453125 C 239.234375 74.667969 239.117188 74.894531 239.050781 75.136719 C 239.363281 75.898438 239.972656 76.648438 240.421875 77.253906 C 240.707031 77.644531 240.96875 77.890625 240.957031 78.40625 C 240.945312 79.074219 240.378906 79.640625 239.792969 79.953125 C 239.730469 80.886719 239.332031 81.117188 239.257812 81.738281 C 239.152344 82.671875 239.972656 83.125 238.839844 84.199219 C 239.082031 84.664062 239.023438 85.371094 238.742188 85.863281 C 238.378906 86.5 238.199219 87.132812 238.199219 87.132812 C 238.199219 87.132812 238.472656 88.761719 238.109375 89.578125 C 237.746094 90.394531 237.292969 91.117188 235.933594 91.390625 C 234.574219 91.660156 233.578125 91.933594 232.765625 92.476562 C 232.1875 92.863281 230.875 94.484375 230.003906 96.074219 L 240.183594 98.449219 C 240.632812 97.757812 241.011719 97.484375 241.496094 97.160156 C 242.21875 96.679688 242.816406 97.160156 244.015625 96.800781 C 245.214844 96.441406 246.535156 96.921875 246.535156 96.921875 C 246.535156 96.921875 247.496094 95.960938 248.335938 96.082031 C 248.816406 96.152344 249.101562 96.65625 249.1875 97.296875 C 252.257812 90.195312 258.019531 84.277344 265.457031 82.421875 C 270.191406 81.242188 273.65625 82.039062 277.730469 83.4375 C 291.523438 88.167969 296.050781 107.523438 287.386719 121.703125 C 282.847656 129.132812 275.257812 133.863281 267.253906 133.269531 C 266.457031 133.210938 263.945312 132.894531 262.609375 132.59375 C 257.277344 131.398438 253.148438 128.042969 250.433594 123.570312 C 250.230469 125.496094 250.007812 127.867188 249.894531 129.914062 C 249.65625 134.234375 246.296875 141.792969 243.898438 145.390625 C 241.496094 148.992188 242.21875 150.1875 240.175781 150.667969 C 238.519531 151.0625 236.222656 150.972656 234.070312 149.699219 C 233.011719 153.265625 231.417969 156.070312 230.699219 157.867188 C 229.738281 160.265625 230.339844 161.226562 231.300781 164.464844 C 232.257812 167.707031 232.738281 170.105469 232.257812 172.863281 C 231.921875 174.796875 232.585938 175.023438 232.851562 175.6875 C 234.242188 176.089844 234.445312 177.742188 234.664062 179.21875 C 234.972656 181.273438 236.132812 183.167969 235.960938 185.242188 C 236.617188 186.160156 237.316406 187.0625 238.019531 187.980469 C 239.9375 190.5 243.417969 195.300781 245.816406 198.539062 C 248.214844 201.777344 248.457031 203.097656 248.816406 203.820312 C 248.984375 204.152344 248.964844 204.828125 248.671875 205.800781 C 249.902344 208.433594 251.351562 212.339844 251.933594 215.933594 C 252.65625 220.375 252.054688 223.613281 252.054688 223.613281 C 252.054688 223.613281 254.5625 228.082031 253.199219 236.960938 C 253.679688 238.820312 254.242188 240.648438 254.335938 241.730469 C 254.453125 243.167969 253.972656 246.527344 254.214844 247.488281 C 254.453125 248.449219 254.574219 250.007812 253.492188 252.046875 C 252.414062 254.085938 250.976562 256.125 250.855469 257.445312 C 250.734375 258.765625 251.695312 267.164062 251.214844 275.203125 C 250.734375 283.238281 250.375 287.558594 250.375 292.480469 C 250.375 297.398438 250.617188 304.714844 251.09375 305.675781 C 251.414062 306.316406 251.683594 307.066406 252.253906 307.777344 C 252.867188 306.742188 254.476562 307.429688 256.140625 308.648438 C 257.320312 309.324219 258.03125 309.40625 259.210938 309.882812 C 263.015625 311.410156 264.722656 312.683594 266.40625 313.445312 C 267.367188 313.878906 268.558594 313.972656 269.085938 314.957031 C 270.929688 315.527344 272.882812 315.648438 274.523438 316.835938 C 275.484375 317.53125 276.171875 318.203125 276.296875 319.414062 C 276.363281 320.058594 276.292969 320.785156 276.046875 321.421875 C 276.109375 321.800781 275.96875 322.375 275.953125 322.734375 C 275.925781 323.371094 276.015625 324.496094 275.492188 324.980469 C 275.027344 325.410156 273.949219 325.527344 273.363281 325.511719 C 271.171875 325.449219 268.882812 325.210938 266.707031 324.882812 C 263.929688 324.46875 261.121094 324.304688 258.371094 323.703125 C 253.570312 322.652344 248.695312 324.523438 243.867188 324.148438 C 242.097656 324.007812 240.070312 323.785156 238.386719 323.167969 C 236.128906 322.335938 235.855469 321.957031 235.601562 319.429688 C 235.542969 318.859375 235.554688 318.292969 235.808594 317.921875 C 235.117188 315.957031 235.203125 314.328125 235.808594 312.703125 C 236.03125 312.113281 236.589844 311.53125 236.996094 310.933594 C 236.386719 309.628906 236.457031 309.558594 236.457031 308.015625 C 236.457031 307.234375 236.242188 306.605469 236.957031 306.191406 C 237.304688 305.984375 237.675781 305.957031 238.03125 306.042969 C 237.738281 298.117188 234.308594 288.960938 233.460938 283 C 233.21875 281.320312 230.578125 279.761719 229.980469 273.285156 C 229.378906 266.804688 231.777344 258.648438 233.699219 254.207031 C 234.726562 251.832031 234.886719 248.769531 234.289062 245.757812 C 232.996094 243.65625 231.015625 240.035156 230.699219 239.929688 C 230.339844 239.8125 226.257812 234.769531 222.421875 228.414062 C 220.765625 225.671875 219.757812 222.777344 219.148438 220.367188 C 218.800781 220.335938 218.488281 220.230469 218.101562 220.015625 C 217.023438 219.414062 216.664062 218.816406 216.78125 217.136719 C 216.816406 216.660156 216.703125 215.929688 216.53125 215.132812 C 215.777344 218.378906 214.851562 221.648438 214.503906 223.132812 C 214.023438 225.171875 214.382812 229.011719 213.542969 232.972656 C 212.703125 236.929688 212.222656 240.410156 210.304688 244.128906 C 208.382812 247.847656 208.503906 247.488281 207.785156 250.609375 C 207.0625 253.726562 205.503906 256.605469 203.824219 258.886719 C 202.144531 261.164062 201.667969 260.566406 200.945312 262.605469 C 200.226562 264.644531 198.425781 271.84375 196.988281 276.164062 C 195.546875 280.480469 193.027344 284.199219 191.46875 288.28125 C 190.003906 292.109375 186.09375 307.308594 186.203125 314.609375 C 187.167969 314.785156 188.015625 314.816406 188.011719 316.207031 C 188.011719 316.917969 188.019531 317.730469 188.15625 318.5 C 189.574219 319.925781 190.75 320.289062 191.484375 321.5625 C 191.789062 321.703125 192.09375 321.84375 192.394531 321.988281 C 193.679688 322.609375 195.972656 323.015625 196.15625 324.765625 C 196.667969 324.929688 197.175781 325.101562 197.675781 325.28125 C 199.984375 326.105469 201.453125 327.890625 201.679688 330.332031 C 201.75 331.066406 201.664062 331.664062 201.417969 332.152344 C 202.011719 332.566406 201.808594 333.691406 201.679688 334.382812 C 201.492188 335.414062 201.253906 335.988281 200.25 336.332031 C 197.035156 337.4375 191.402344 337.007812 187.96875 336.457031 C 186.316406 336.304688 182.878906 335.863281 181.179688 335.3125 C 179.878906 334.890625 177.875 334.546875 176.84375 333.609375 C 176.40625 333.214844 175.976562 332.605469 175.597656 331.984375 C 175.042969 331.679688 174.46875 331.417969 173.8125 331.289062 C 172.546875 331.042969 169.675781 331.070312 169.058594 329.769531 C 168.757812 329.140625 168.382812 326.460938 169.40625 326.175781 C 167.957031 321.382812 170.859375 320.074219 171.644531 317.460938 C 171.355469 316.480469 171.199219 315.859375 171.613281 314.707031 C 171.808594 314.15625 171.859375 313.816406 172.484375 313.703125 C 172.726562 313.660156 173.195312 313.691406 173.535156 313.800781 C 173.894531 312.378906 174.15625 311.238281 174.191406 310.832031 C 174.3125 309.394531 175.03125 302.4375 174.671875 297.398438 C 174.3125 292.359375 175.269531 283.121094 174.910156 280.722656 C 174.550781 278.320312 173.351562 273.042969 176.472656 267.285156 C 179.589844 261.523438 186.308594 253.488281 187.148438 251.566406 C 187.988281 249.648438 188.828125 248.929688 188.949219 246.410156 C 189.070312 243.890625 189.546875 240.050781 188.707031 235.011719 C 187.867188 229.972656 188.589844 222.175781 188.707031 220.015625 C 188.808594 218.195312 188.0625 210.425781 188.964844 207.011719 C 187.460938 206.378906 187.941406 204.074219 188.589844 202.617188 C 188.589844 202.617188 188.109375 200.21875 187.867188 196.5 C 187.628906 192.78125 188.949219 190.378906 188.828125 188.582031 C 188.707031 186.78125 188.949219 180.664062 188.828125 178.382812 C 188.707031 176.105469 189.1875 175.503906 190.027344 174.304688 C 190.351562 173.839844 190.75 173.21875 191.359375 172.855469 C 191.746094 171.839844 192.066406 170.949219 192.066406 170.34375 C 192.066406 168.425781 190.867188 165.425781 190.988281 162.066406 C 191.109375 158.707031 192.066406 157.390625 191.230469 154.628906 C 190.386719 151.871094 188.46875 147.070312 187.03125 142.871094 C 185.863281 139.46875 185.40625 134.960938 185.71875 130.566406 C 182.925781 134.921875 179.910156 135.457031 175.269531 138.914062 C 174.152344 139.746094 173.5 139.976562 173.15625 139.761719 C 171.757812 140.976562 169.917969 141.652344 168.097656 141.300781 C 164.542969 140.613281 161.890625 137.785156 160.933594 134.351562 C 160.023438 131.085938 158.953125 127.875 158.1875 124.582031 C 156.496094 117.34375 157.648438 110.726562 156.179688 104.570312 C 155.988281 103.785156 156.265625 104.273438 154.457031 101.109375 C 153.425781 99.308594 154.351562 97.34375 154.308594 95.351562 C 153.082031 93.554688 151.703125 92.039062 150.738281 90.074219 C 148.984375 94.550781 146.664062 98.84375 143.804688 102.53125 C 139.46875 108.117188 133.265625 113.0625 126.242188 113.230469 C 124.707031 113.269531 123.738281 113.078125 122 112.832031 C 119.632812 112.5 119.042969 112.4375 118.195312 112.234375 C 108.800781 110.003906 104.316406 99.207031 103.226562 89.472656 C 102.3125 84.621094 102.34375 79.5625 103.023438 74.730469 C 100.757812 74.238281 84.058594 70.632812 81.90625 70.167969 C 78.910156 69.523438 80.398438 61.460938 83.476562 61.058594 " fill-opacity="1" fill-rule="nonzero"/></g></svg>