<svg xmlns="http://www.w3.org/2000/svg" xmlns:xlink="http://www.w3.org/1999/xlink" width="500" zoomAndPan="magnify" viewBox="0 0 375 374.999991" height="500" preserveAspectRatio="xMidYMid meet" version="1.0"><rect x="-37.5" width="450" fill="#ffffff" y="-37.499999" height="449.999989" fill-opacity="1"/><rect x="-37.5" width="450" fill="#ffffff" y="-37.499999" height="449.999989" fill-opacity="1"/><path fill="#636576" d="M 248.789062 112.03125 C 245.015625 83.558594 268.085938 43.363281 218.496094 37.464844 C 210.746094 36.542969 186.9375 37.3125 190.667969 50.125 C 192.238281 55.519531 186.101562 60.839844 186.015625 67.445312 C 185.804688 83.347656 177.972656 85.855469 178.4375 93.882812 C 178.628906 97.234375 183.71875 95.089844 184.867188 96.375 C 185.75 97.355469 184.324219 98.5625 184.386719 101.617188 C 184.40625 102.539062 184.996094 104.449219 184.8125 105.828125 C 184.386719 108.929688 180.941406 112.183594 182.75 113.464844 C 187.917969 117.128906 199.363281 112 202.703125 123.003906 C 203.8125 126.65625 201.789062 129.277344 198.148438 134.316406 C 216.433594 124.746094 219.492188 110.4375 219.492188 110.4375 C 217.664062 128.566406 192.707031 142.386719 192.707031 142.386719 C 212.71875 150.683594 218.730469 164.757812 218.730469 164.757812 C 210.980469 153.707031 197.585938 149.050781 189.523438 147.175781 L 189.445312 147.289062 C 180.902344 145.773438 167.558594 145.554688 154.488281 154.0625 C 146.515625 159.253906 139.265625 166.539062 126.589844 166.488281 C 126.589844 166.488281 141.421875 164.128906 151.597656 152.96875 C 143.988281 150.414062 124.09375 140.699219 102.636719 160.253906 C 96.511719 172.675781 87.644531 173.496094 87.644531 173.496094 C 97.277344 169.941406 108.734375 145.847656 102.070312 113.878906 C 102.070312 113.878906 101.25 109.433594 102.863281 106.035156 C 99.484375 108.484375 97.359375 111.820312 97.359375 111.820312 C 100.671875 102.214844 104.917969 102.398438 108.601562 102.277344 C 127.089844 101.667969 120.210938 103.003906 129.023438 91.171875 C 133.945312 84.558594 118.992188 76.691406 112.964844 75.085938 C 108.863281 73.992188 100.496094 82.597656 96.398438 86.097656 C 91.117188 90.609375 87.929688 102.480469 82.625 113.4375 C 74.875 129.445312 58.777344 160.183594 71.917969 183.816406 C 73.804688 187.214844 79.574219 186.246094 85.757812 190.890625 C 93.046875 196.371094 125.421875 203.253906 143.019531 194.007812 C 143.019531 194.007812 161.871094 193.980469 173.667969 180.902344 C 173.667969 180.902344 166.753906 193.199219 146.898438 196.503906 C 152.394531 200.941406 162.566406 208.285156 174.46875 212.78125 C 166.679688 231.917969 183.796875 251 185.011719 269.746094 C 190.210938 261.765625 195.109375 250.457031 197.710938 234.601562 C 197.710938 234.601562 199.582031 255.328125 188.445312 277.902344 C 172.800781 309.59375 176.636719 341.519531 176.636719 341.519531 C 197.414062 272.234375 284.355469 238.652344 290.984375 185.648438 C 295.871094 146.546875 251.878906 135.375 248.789062 112.03125 " fill-opacity="1" fill-rule="nonzero"/><path fill="#636576" d="M 187.5 351.074219 C 97.160156 351.074219 23.925781 277.839844 23.925781 187.5 C 23.925781 97.160156 97.160156 23.925781 187.5 23.925781 C 277.839844 23.925781 351.074219 97.160156 351.074219 187.5 C 351.074219 277.839844 277.839844 351.074219 187.5 351.074219 Z M 187.5 -0.0117188 C 83.9375 -0.0117188 -0.0117188 83.941406 -0.0117188 187.5 C -0.0117188 291.058594 83.9375 375.011719 187.5 375.011719 C 291.058594 375.011719 375.011719 291.058594 375.011719 187.5 C 375.011719 83.941406 291.058594 -0.0117188 187.5 -0.0117188 " fill-opacity="1" fill-rule="nonzero"/></svg>