<svg xmlns="http://www.w3.org/2000/svg" xmlns:xlink="http://www.w3.org/1999/xlink" width="500" zoomAndPan="magnify" viewBox="0 0 375 374.999991" height="500" preserveAspectRatio="xMidYMid meet" version="1.0"><rect x="-37.5" width="450" fill="#ffffff" y="-37.499999" height="449.999989" fill-opacity="1"/><rect x="-37.5" width="450" fill="#ffffff" y="-37.499999" height="449.999989" fill-opacity="1"/><path fill="#636576" d="M 161.558594 84.121094 C 163.394531 87.75 164.550781 91.5 167.292969 94.574219 C 168.015625 95.382812 168.890625 96.90625 169.628906 98.699219 C 170.046875 97.304688 170.640625 96.078125 171.320312 94.996094 C 171.214844 94.769531 171.160156 94.5625 171.164062 94.371094 C 171.3125 88.375 175.0625 78.324219 179.714844 76.527344 C 184.359375 74.726562 190.960938 73.226562 194.109375 73.078125 C 196.046875 72.984375 198.828125 72.042969 200.6875 71.332031 C 187.289062 68.414062 174.042969 65.527344 163.679688 63.273438 C 163.414062 63.632812 163.125 63.984375 162.914062 64.347656 C 161.980469 65.941406 161.261719 67.5625 160.203125 69.070312 C 159.324219 70.335938 158.414062 71.839844 157.417969 73.28125 C 158.554688 76.980469 159.789062 80.632812 161.558594 84.121094 Z M 242.25 89.875 C 244.949219 91.523438 246.449219 94.371094 247.046875 96.023438 C 247.515625 97.308594 251.539062 100.78125 252.578125 106.230469 C 255.167969 100.125 258.589844 97.191406 257.710938 94.832031 C 256.511719 91.617188 250.496094 87 250.496094 83.574219 C 250.496094 83.246094 250.585938 82.78125 250.742188 82.230469 C 247.234375 81.464844 243.066406 80.558594 238.433594 79.550781 C 238.351562 85.160156 237.183594 86.777344 242.25 89.875 Z M 57.472656 29.449219 C 57.980469 29.378906 56.234375 29.03125 84.386719 35.65625 C 87.5 25.90625 91.472656 20.835938 93.339844 18.003906 C 96.550781 13.121094 100.640625 8.527344 105.546875 5.3125 C 110.945312 1.777344 117.1875 0.0585938 123.269531 1.949219 C 128.03125 3.421875 130.140625 3.898438 132.820312 5.558594 C 137.28125 8.328125 140.449219 12.703125 142.585938 17.476562 C 146.683594 26.625 147.371094 37.78125 146.101562 47.835938 C 146.566406 47.855469 147.324219 48.160156 147.867188 48.558594 C 148.332031 47.808594 149.003906 47.753906 149.710938 48.332031 C 150.714844 47.597656 152.621094 48.828125 153.4375 49.660156 C 153.890625 49.109375 154.769531 49.289062 155.316406 49.6875 C 155.804688 50.042969 156.328125 50.605469 156.808594 51.246094 C 156.757812 49.914062 156.929688 48.160156 158.253906 48.203125 C 159.414062 48.238281 159.796875 49.804688 160.371094 50.578125 C 161.539062 52.160156 163.777344 52.195312 163.921875 55.304688 L 212.992188 66.761719 C 215.652344 66.003906 218.214844 65.53125 218.835938 64.644531 C 219.628906 63.511719 219.96875 60.570312 219.742188 58.984375 C 219.714844 58.785156 219.632812 58.488281 219.511719 58.113281 C 219.300781 58.457031 219.09375 58.800781 218.914062 59.164062 C 218.957031 57.429688 218.320312 55.859375 217.902344 54.238281 C 217.796875 54.03125 217.695312 53.820312 217.597656 53.605469 C 217.570312 54.082031 217.789062 54.519531 217.941406 54.953125 C 216.648438 53.738281 215.84375 51.496094 215.71875 49.789062 C 215.558594 50.300781 215.417969 50.847656 215.457031 51.390625 C 215.046875 48.855469 214.101562 48.070312 214.765625 42.578125 C 214.527344 42.894531 214.269531 43.429688 214.277344 43.839844 C 214.175781 42.421875 214.425781 40.894531 214.695312 39.507812 C 214.847656 38.726562 214.941406 37.796875 215.277344 37.0625 C 215.472656 36.632812 215.824219 36.269531 216.015625 35.859375 C 215.59375 36.359375 214.835938 36.492188 214.476562 37.0625 C 214.734375 35.242188 216.160156 33.007812 217.582031 31.894531 C 217.023438 31.820312 216.078125 32.042969 215.707031 32.363281 C 216.363281 31.453125 217.226562 30.707031 218.28125 30.273438 C 218.886719 30.023438 219.820312 29.652344 220.636719 29.617188 C 220.90625 28.253906 221.84375 27.050781 222.929688 26.136719 C 224.042969 25.199219 225.136719 24.335938 226.46875 23.746094 C 227.832031 23.140625 229.003906 22.191406 229.851562 20.957031 C 229.957031 22.027344 228.453125 23.648438 227.53125 24.058594 C 228.953125 24.164062 229.992188 22.816406 230.703125 21.789062 C 230.566406 22.597656 230.222656 23.382812 229.792969 24.117188 C 237.367188 21.183594 239.273438 22.917969 241.664062 20.359375 C 241.484375 21.335938 240.015625 21.878906 239.660156 22.714844 C 240.457031 22.773438 241.152344 22.871094 241.972656 22.796875 C 243.078125 22.703125 244.097656 22.695312 245.152344 21.410156 C 244.808594 22.832031 242.472656 23.464844 241.082031 23.738281 C 242.828125 23.859375 245.679688 23.441406 246.214844 21.8125 C 246.28125 22.386719 245.507812 23.167969 245.132812 23.507812 C 244.375 24.1875 243.34375 24.585938 242.335938 24.835938 C 243.96875 24.679688 245.445312 24.164062 246.421875 22.738281 C 246.183594 23.355469 246.355469 24.054688 245.507812 25.167969 C 246.449219 24.4375 247.542969 22.890625 247.457031 21.691406 C 247.722656 22.265625 247.570312 23.191406 247.5 23.792969 C 247.445312 24.277344 247.363281 24.960938 247.0625 25.371094 C 248.230469 24.097656 248.648438 21.839844 248.425781 21.085938 C 248.765625 21.714844 248.914062 22.4375 248.9375 23.175781 C 249.238281 22.660156 249.578125 22.148438 249.902344 21.570312 C 249.574219 22.507812 249.597656 23.878906 249.839844 24.839844 C 249.941406 25.246094 250.203125 25.953125 250.191406 26.386719 C 250.246094 25.308594 250.71875 24.011719 250.621094 22.882812 C 251.726562 24.285156 251.871094 27.230469 251.058594 28.796875 C 252.042969 27.753906 252.667969 26.394531 253.054688 25.054688 C 253.304688 26.683594 253.082031 28.285156 252.324219 29.511719 C 253.320312 28.695312 253.878906 27.640625 254.242188 26.378906 C 254.089844 27.882812 254.269531 29.554688 253.285156 30.835938 C 254.046875 30.175781 254.519531 29.550781 255.011719 28.679688 C 254.488281 30.933594 253.433594 32.089844 251.675781 33.421875 C 252.796875 35.90625 252.796875 38.5 253.363281 39.742188 C 255.082031 43.519531 253.476562 42.992188 253.476562 44.382812 C 253.476562 44.660156 253.25 44.984375 252.96875 45.347656 C 253.054688 45.691406 253.25 45.960938 253.75 46.046875 C 253.503906 46.125 253.214844 46.109375 253.007812 45.972656 C 253.03125 46.136719 253.203125 46.332031 253.285156 46.367188 C 252.9375 46.390625 252.625 46.320312 252.34375 46.1875 C 252.167969 46.460938 252.019531 46.742188 251.941406 47.046875 C 252.332031 47.996094 253.09375 48.9375 253.652344 49.691406 C 254.011719 50.179688 254.332031 50.488281 254.324219 51.132812 C 254.304688 51.96875 253.601562 52.675781 252.867188 53.066406 C 252.789062 54.234375 252.289062 54.519531 252.199219 55.296875 C 252.066406 56.464844 253.09375 57.03125 251.675781 58.375 C 251.976562 58.953125 251.90625 59.839844 251.550781 60.457031 C 251.101562 61.25 250.875 62.042969 250.875 62.042969 C 250.875 62.042969 251.214844 64.078125 250.761719 65.097656 C 250.308594 66.117188 249.742188 67.023438 248.042969 67.363281 C 246.34375 67.703125 245.097656 68.039062 244.082031 68.71875 C 243.359375 69.203125 241.71875 71.230469 240.628906 73.21875 L 253.351562 76.1875 C 253.917969 75.320312 254.390625 74.980469 254.996094 74.578125 C 255.894531 73.976562 256.644531 74.578125 258.144531 74.128906 C 259.644531 73.679688 261.296875 74.277344 261.296875 74.277344 C 261.296875 74.277344 262.496094 73.078125 263.542969 73.226562 C 264.148438 73.3125 264.5 73.945312 264.609375 74.746094 C 268.449219 65.867188 275.648438 58.472656 284.949219 56.152344 C 290.863281 54.675781 295.195312 55.675781 300.289062 57.421875 C 317.527344 63.335938 323.1875 87.53125 312.359375 105.253906 C 306.683594 114.542969 297.199219 120.453125 287.191406 119.714844 C 286.195312 119.640625 283.054688 119.242188 281.386719 118.871094 C 274.71875 117.371094 269.5625 113.179688 266.164062 107.585938 C 265.914062 109.996094 265.636719 112.957031 265.492188 115.515625 C 265.191406 120.917969 260.996094 130.367188 257.996094 134.863281 C 254.996094 139.363281 255.894531 140.863281 253.347656 141.460938 C 251.273438 141.949219 248.40625 141.84375 245.710938 140.25 C 244.390625 144.703125 242.398438 148.214844 241.5 150.460938 C 240.300781 153.460938 241.050781 154.660156 242.25 158.707031 C 243.449219 162.757812 244.046875 165.757812 243.449219 169.207031 C 243.027344 171.621094 243.855469 171.902344 244.1875 172.734375 C 245.925781 173.238281 246.179688 175.300781 246.457031 177.148438 C 246.839844 179.714844 248.289062 182.085938 248.074219 184.679688 C 248.898438 185.824219 249.773438 186.953125 250.648438 188.101562 C 253.046875 191.25 257.394531 197.25 260.394531 201.300781 C 263.394531 205.347656 263.695312 206.996094 264.144531 207.898438 C 264.351562 208.316406 264.332031 209.160156 263.964844 210.375 C 265.503906 213.664062 267.3125 218.550781 268.042969 223.042969 C 268.945312 228.59375 268.195312 232.644531 268.195312 232.644531 C 268.195312 232.644531 271.328125 238.230469 269.625 249.324219 C 270.222656 251.652344 270.929688 253.933594 271.042969 255.289062 C 271.191406 257.085938 270.59375 261.285156 270.894531 262.484375 C 271.191406 263.683594 271.34375 265.632812 269.992188 268.183594 C 268.644531 270.734375 266.84375 273.28125 266.691406 274.933594 C 266.542969 276.582031 267.742188 287.078125 267.144531 297.128906 C 266.542969 307.175781 266.09375 312.574219 266.09375 318.722656 C 266.09375 324.871094 266.394531 334.019531 266.992188 335.21875 C 267.394531 336.019531 267.730469 336.957031 268.445312 337.84375 C 269.207031 336.554688 271.222656 337.410156 273.304688 338.9375 C 274.777344 339.78125 275.664062 339.882812 277.136719 340.476562 C 281.894531 342.386719 284.03125 343.980469 286.132812 344.929688 C 287.335938 345.472656 288.820312 345.589844 289.480469 346.820312 C 291.789062 347.535156 294.230469 347.683594 296.28125 349.171875 C 297.480469 350.042969 298.339844 350.878906 298.492188 352.390625 C 298.578125 353.199219 298.488281 354.105469 298.183594 354.902344 C 298.261719 355.378906 298.085938 356.09375 298.066406 356.539062 C 298.035156 357.339844 298.144531 358.746094 297.488281 359.351562 C 296.910156 359.886719 295.5625 360.035156 294.828125 360.011719 C 292.09375 359.933594 289.226562 359.636719 286.507812 359.230469 C 283.035156 358.710938 279.523438 358.507812 276.085938 357.753906 C 270.089844 356.441406 263.992188 358.777344 257.957031 358.308594 C 255.746094 358.136719 253.210938 357.855469 251.109375 357.082031 C 248.285156 356.042969 247.941406 355.570312 247.625 352.410156 C 247.554688 351.699219 247.566406 350.992188 247.882812 350.527344 C 247.023438 348.074219 247.128906 346.035156 247.886719 344.003906 C 248.164062 343.265625 248.863281 342.539062 249.371094 341.792969 C 248.609375 340.160156 248.695312 340.070312 248.695312 338.144531 C 248.695312 337.167969 248.429688 336.378906 249.320312 335.863281 C 249.753906 335.609375 250.222656 335.570312 250.664062 335.679688 C 250.296875 325.773438 246.011719 314.324219 244.949219 306.875 C 244.648438 304.777344 241.347656 302.828125 240.597656 294.730469 C 239.847656 286.628906 242.847656 276.433594 245.25 270.882812 C 246.53125 267.914062 246.734375 264.089844 245.984375 260.320312 C 244.371094 257.699219 241.894531 253.167969 241.5 253.035156 C 241.050781 252.886719 235.949219 246.589844 231.152344 238.640625 C 229.082031 235.214844 227.824219 231.59375 227.058594 228.582031 C 226.625 228.542969 226.234375 228.410156 225.753906 228.144531 C 224.402344 227.394531 223.953125 226.644531 224.105469 224.542969 C 224.144531 223.949219 224.007812 223.039062 223.785156 222.042969 C 222.84375 226.097656 221.691406 230.183594 221.253906 232.042969 C 220.652344 234.59375 221.101562 239.390625 220.054688 244.339844 C 219.003906 249.289062 218.402344 253.636719 216.003906 258.285156 C 213.605469 262.933594 213.753906 262.484375 212.855469 266.386719 C 211.957031 270.285156 210.003906 273.882812 207.90625 276.730469 C 205.808594 279.582031 205.207031 278.832031 204.308594 281.382812 C 203.40625 283.929688 201.160156 292.929688 199.359375 298.328125 C 197.558594 303.726562 194.410156 308.375 192.460938 313.476562 C 190.628906 318.261719 185.742188 337.261719 185.878906 346.386719 C 187.085938 346.609375 188.144531 346.648438 188.140625 348.386719 C 188.140625 349.273438 188.148438 350.289062 188.320312 351.253906 C 190.09375 353.035156 191.5625 353.484375 192.480469 355.078125 C 192.859375 355.253906 193.242188 355.429688 193.617188 355.609375 C 195.222656 356.386719 198.09375 356.894531 198.316406 359.082031 C 198.960938 359.285156 199.597656 359.503906 200.21875 359.726562 C 203.105469 360.753906 204.9375 362.988281 205.226562 366.042969 C 205.3125 366.957031 205.203125 367.707031 204.894531 368.316406 C 205.640625 368.835938 205.386719 370.242188 205.226562 371.105469 C 204.992188 372.394531 204.691406 373.109375 203.4375 373.542969 C 199.421875 374.921875 192.375 374.382812 188.085938 373.699219 C 186.023438 373.507812 181.722656 372.957031 179.601562 372.265625 C 177.972656 371.738281 175.46875 371.308594 174.179688 370.136719 C 173.632812 369.644531 173.097656 368.882812 172.625 368.105469 C 171.929688 367.726562 171.214844 367.394531 170.390625 367.234375 C 168.808594 366.929688 165.21875 366.960938 164.449219 365.335938 C 164.074219 364.546875 163.601562 361.203125 164.882812 360.84375 C 163.070312 354.851562 166.703125 353.214844 167.679688 349.949219 C 167.316406 348.726562 167.125 347.949219 167.640625 346.511719 C 167.886719 345.820312 167.949219 345.398438 168.734375 345.253906 C 169.03125 345.199219 169.621094 345.238281 170.046875 345.378906 C 170.496094 343.597656 170.824219 342.175781 170.863281 341.667969 C 171.015625 339.867188 171.914062 331.171875 171.464844 324.871094 C 171.015625 318.574219 172.214844 307.027344 171.765625 304.027344 C 171.3125 301.027344 169.816406 294.429688 173.714844 287.230469 C 177.613281 280.03125 186.011719 269.984375 187.058594 267.585938 C 188.109375 265.183594 189.160156 264.285156 189.3125 261.136719 C 189.460938 257.988281 190.0625 253.1875 189.011719 246.890625 C 187.960938 240.589844 188.863281 230.84375 189.011719 228.144531 C 189.136719 225.871094 188.199219 216.15625 189.332031 211.890625 C 187.449219 211.097656 188.050781 208.21875 188.863281 206.398438 C 188.863281 206.398438 188.261719 203.398438 187.960938 198.75 C 187.660156 194.101562 189.3125 191.101562 189.160156 188.851562 C 189.011719 186.601562 189.3125 178.953125 189.160156 176.105469 C 189.011719 173.253906 189.609375 172.503906 190.660156 171.003906 C 191.066406 170.425781 191.5625 169.648438 192.324219 169.195312 C 192.808594 167.921875 193.210938 166.8125 193.210938 166.058594 C 193.210938 163.65625 191.710938 159.90625 191.859375 155.710938 C 192.011719 151.511719 193.210938 149.859375 192.160156 146.410156 C 191.109375 142.960938 188.710938 136.960938 186.910156 131.714844 C 185.453125 127.460938 184.878906 121.828125 185.277344 116.332031 C 181.78125 121.777344 178.011719 122.445312 172.214844 126.765625 C 170.8125 127.808594 170 128.097656 169.570312 127.824219 C 167.824219 129.34375 165.523438 130.191406 163.246094 129.75 C 158.800781 128.890625 155.488281 125.359375 154.292969 121.066406 C 153.15625 116.980469 151.816406 112.96875 150.855469 108.851562 C 148.746094 99.804688 150.183594 91.53125 148.347656 83.839844 C 148.113281 82.855469 148.457031 83.46875 146.195312 79.515625 C 144.910156 77.257812 146.0625 74.808594 146.011719 72.3125 C 144.480469 70.066406 142.75 68.175781 141.546875 65.71875 C 139.351562 71.316406 136.453125 76.679688 132.882812 81.289062 C 127.460938 88.273438 119.707031 94.453125 110.925781 94.664062 C 109.007812 94.710938 107.800781 94.472656 105.625 94.167969 C 102.664062 93.75 101.929688 93.671875 100.867188 93.417969 C 89.125 90.628906 83.519531 77.132812 82.160156 64.964844 C 81.015625 58.898438 81.058594 52.578125 81.902344 46.535156 C 79.074219 45.925781 58.199219 41.417969 55.507812 40.835938 C 51.761719 40.027344 53.621094 29.953125 57.472656 29.449219 " fill-opacity="1" fill-rule="nonzero"/></svg>