<svg xmlns="http://www.w3.org/2000/svg" xmlns:xlink="http://www.w3.org/1999/xlink" width="500" zoomAndPan="magnify" viewBox="0 0 375 374.999991" height="500" preserveAspectRatio="xMidYMid meet" version="1.0"><defs><g/><clipPath id="6ef69b740e"><path d="M 0 125.695312 L 123.75 125.695312 L 123.75 249.445312 L 0 249.445312 Z M 0 125.695312 " clip-rule="nonzero"/></clipPath></defs><rect x="-37.5" width="450" fill="#ffffff" y="-37.499999" height="449.999989" fill-opacity="1"/><rect x="-37.5" width="450" fill="#ffffff" y="-37.499999" height="449.999989" fill-opacity="1"/><g fill="#636576" fill-opacity="1"><g transform="translate(126.852219, 210.313635)"><g><path d="M 13.265625 0.46875 C 10.984375 0.46875 8.914062 0.0234375 7.0625 -0.859375 C 5.207031 -1.753906 3.75 -3.0625 2.6875 -4.78125 C 1.625 -6.5 1.09375 -8.578125 1.09375 -11.015625 L 1.09375 -23.46875 L 10.890625 -23.46875 L 10.890625 -11.59375 C 10.890625 -10.695312 11.070312 -9.988281 11.4375 -9.46875 C 11.8125 -8.945312 12.382812 -8.6875 13.15625 -8.6875 C 13.882812 -8.6875 14.429688 -8.925781 14.796875 -9.40625 C 15.171875 -9.894531 15.359375 -10.582031 15.359375 -11.46875 L 15.359375 -49.765625 L 25.375 -49.765625 L 25.375 -12.453125 C 25.375 -9.867188 24.863281 -7.597656 23.84375 -5.640625 C 22.820312 -3.691406 21.390625 -2.1875 19.546875 -1.125 C 17.710938 -0.0625 15.617188 0.46875 13.265625 0.46875 Z M 13.265625 0.46875 "/></g></g></g><g fill="#636576" fill-opacity="1"><g transform="translate(155.587483, 210.313635)"><g><path d="M 1.734375 0 L 1.734375 -49.765625 L 11.359375 -49.765625 L 11.359375 0 Z M 1.734375 0 "/></g></g></g><g fill="#636576" fill-opacity="1"><g transform="translate(170.476611, 210.313635)"><g><path d="M 2.203125 0 L 2.203125 -49.765625 L 17.375 -49.765625 L 21.546875 -19.40625 L 25.71875 -49.765625 L 41.015625 -49.765625 L 41.015625 0 L 31.921875 0 L 31.921875 -35.859375 L 26.1875 0 L 17.265625 0 L 11.1875 -35.859375 L 11.1875 0 Z M 2.203125 0 "/></g></g></g><g fill="#636576" fill-opacity="1"><g transform="translate(215.433305, 210.313635)"><g><path d="M 3.125 -35.171875 L 4.984375 -41.890625 L 1.390625 -41.890625 L 1.390625 -50.296875 L 12 -50.296875 L 12 -42.125 L 9.09375 -35.171875 Z M 3.125 -35.171875 "/></g></g></g><g fill="#636576" fill-opacity="1"><g transform="translate(230.612092, 210.313635)"><g><path d="M 14.015625 0.46875 C 9.492188 0.46875 6.226562 -0.648438 4.21875 -2.890625 C 2.21875 -5.128906 1.21875 -8.742188 1.21875 -13.734375 L 1.21875 -18.59375 L 11.015625 -18.59375 L 11.015625 -12.40625 C 11.015625 -9.925781 11.804688 -8.6875 13.390625 -8.6875 C 14.273438 -8.6875 14.890625 -8.945312 15.234375 -9.46875 C 15.585938 -9.988281 15.765625 -10.867188 15.765625 -12.109375 C 15.765625 -13.734375 15.566406 -15.078125 15.171875 -16.140625 C 14.785156 -17.203125 14.289062 -18.085938 13.6875 -18.796875 C 13.09375 -19.515625 12.023438 -20.625 10.484375 -22.125 L 6.203125 -26.421875 C 2.878906 -29.660156 1.21875 -33.253906 1.21875 -37.203125 C 1.21875 -41.441406 2.191406 -44.671875 4.140625 -46.890625 C 6.085938 -49.117188 8.9375 -50.234375 12.6875 -50.234375 C 17.164062 -50.234375 20.390625 -49.046875 22.359375 -46.671875 C 24.328125 -44.296875 25.3125 -40.578125 25.3125 -35.515625 L 15.171875 -35.515625 L 15.125 -38.9375 C 15.125 -39.59375 14.9375 -40.113281 14.5625 -40.5 C 14.195312 -40.882812 13.6875 -41.078125 13.03125 -41.078125 C 12.257812 -41.078125 11.679688 -40.863281 11.296875 -40.4375 C 10.910156 -40.007812 10.71875 -39.429688 10.71875 -38.703125 C 10.71875 -37.078125 11.644531 -35.394531 13.5 -33.65625 L 19.296875 -28.09375 C 20.648438 -26.78125 21.769531 -25.535156 22.65625 -24.359375 C 23.539062 -23.179688 24.253906 -21.789062 24.796875 -20.1875 C 25.335938 -18.582031 25.609375 -16.679688 25.609375 -14.484375 C 25.609375 -9.578125 24.707031 -5.859375 22.90625 -3.328125 C 21.113281 -0.796875 18.148438 0.46875 14.015625 0.46875 Z M 14.015625 0.46875 "/></g></g></g><g fill="#636576" fill-opacity="1"><g transform="translate(259.057696, 210.313635)"><g/></g></g><g fill="#636576" fill-opacity="1"><g transform="translate(274.352354, 210.313635)"><g><path d="M 12.453125 0.46875 C 8.859375 0.46875 6.179688 -0.796875 4.421875 -3.328125 C 2.671875 -5.859375 1.796875 -9.691406 1.796875 -14.828125 L 1.796875 -36.265625 C 1.796875 -40.859375 2.816406 -44.332031 4.859375 -46.6875 C 6.910156 -49.050781 9.960938 -50.234375 14.015625 -50.234375 C 17.304688 -50.234375 19.859375 -49.578125 21.671875 -48.265625 C 23.484375 -46.953125 24.738281 -45.039062 25.4375 -42.53125 C 26.132812 -40.019531 26.484375 -36.789062 26.484375 -32.84375 L 16.75 -32.84375 L 16.75 -37.3125 C 16.75 -38.507812 16.582031 -39.4375 16.25 -40.09375 C 15.925781 -40.75 15.335938 -41.078125 14.484375 -41.078125 C 12.585938 -41.078125 11.640625 -39.84375 11.640625 -37.375 L 11.640625 -13.265625 C 11.640625 -11.765625 11.832031 -10.625 12.21875 -9.84375 C 12.601562 -9.070312 13.28125 -8.6875 14.25 -8.6875 C 15.21875 -8.6875 15.894531 -9.070312 16.28125 -9.84375 C 16.664062 -10.625 16.859375 -11.765625 16.859375 -13.265625 L 16.859375 -20.390625 L 14.1875 -20.390625 L 14.1875 -28.96875 L 26.359375 -28.96875 L 26.359375 0 L 22.359375 0 L 20.6875 -4.171875 C 18.90625 -1.078125 16.160156 0.46875 12.453125 0.46875 Z M 12.453125 0.46875 "/></g></g></g><g fill="#636576" fill-opacity="1"><g transform="translate(304.188362, 210.313635)"><g><path d="M 8.234375 0 L 8.234375 -16.390625 L 0.296875 -49.765625 L 10.140625 -49.765625 L 12.921875 -32.90625 L 15.703125 -49.765625 L 25.546875 -49.765625 L 17.609375 -16.390625 L 17.609375 0 Z M 8.234375 0 "/></g></g></g><g fill="#636576" fill-opacity="1"><g transform="translate(331.764963, 210.313635)"><g><path d="M 2.203125 0 L 2.203125 -49.765625 L 17.375 -49.765625 L 21.546875 -19.40625 L 25.71875 -49.765625 L 41.015625 -49.765625 L 41.015625 0 L 31.921875 0 L 31.921875 -35.859375 L 26.1875 0 L 17.265625 0 L 11.1875 -35.859375 L 11.1875 0 Z M 2.203125 0 "/></g></g></g><path fill="#636576" d="M 82 162.621094 C 80.757812 153.238281 88.359375 139.988281 72.015625 138.042969 C 69.460938 137.742188 61.613281 137.992188 62.84375 142.214844 C 63.359375 143.996094 61.339844 145.75 61.308594 147.925781 C 61.238281 153.167969 58.660156 153.992188 58.8125 156.636719 C 58.875 157.746094 60.550781 157.039062 60.929688 157.460938 C 61.222656 157.785156 60.753906 158.179688 60.773438 159.1875 C 60.78125 159.492188 60.972656 160.121094 60.914062 160.574219 C 60.773438 161.597656 59.636719 162.671875 60.234375 163.09375 C 61.9375 164.300781 65.707031 162.609375 66.808594 166.238281 C 67.175781 167.441406 66.507812 168.304688 65.308594 169.964844 C 71.335938 166.8125 72.34375 162.09375 72.34375 162.09375 C 71.742188 168.070312 63.515625 172.625 63.515625 172.625 C 70.109375 175.359375 72.09375 180 72.09375 180 C 69.539062 176.355469 65.121094 174.820312 62.464844 174.203125 L 62.441406 174.242188 C 59.625 173.742188 55.226562 173.667969 50.917969 176.472656 C 48.289062 178.183594 45.902344 180.585938 41.722656 180.570312 C 41.722656 180.570312 46.613281 179.792969 49.964844 176.113281 C 47.457031 175.269531 40.898438 172.070312 33.828125 178.515625 C 31.808594 182.609375 28.886719 182.878906 28.886719 182.878906 C 32.0625 181.707031 35.835938 173.765625 33.640625 163.230469 C 33.640625 163.230469 33.371094 161.765625 33.902344 160.644531 C 32.789062 161.453125 32.089844 162.550781 32.089844 162.550781 C 33.179688 159.386719 34.582031 159.445312 35.792969 159.40625 C 41.886719 159.203125 39.621094 159.644531 42.523438 155.746094 C 44.148438 153.566406 39.21875 150.972656 37.234375 150.441406 C 35.878906 150.082031 33.121094 152.917969 31.773438 154.074219 C 30.03125 155.558594 28.980469 159.472656 27.234375 163.085938 C 24.679688 168.359375 19.371094 178.492188 23.703125 186.28125 C 24.324219 187.398438 26.226562 187.082031 28.265625 188.613281 C 30.667969 190.417969 41.339844 192.6875 47.136719 189.640625 C 47.136719 189.640625 53.351562 189.628906 57.238281 185.320312 C 57.238281 185.320312 54.960938 189.375 48.417969 190.460938 C 50.230469 191.925781 53.582031 194.34375 57.503906 195.828125 C 54.9375 202.136719 60.578125 208.421875 60.976562 214.601562 C 62.691406 211.972656 64.308594 208.246094 65.164062 203.019531 C 65.164062 203.019531 65.78125 209.851562 62.109375 217.289062 C 56.953125 227.734375 58.21875 238.257812 58.21875 238.257812 C 65.066406 215.421875 93.722656 204.355469 95.90625 186.886719 C 97.515625 173.996094 83.019531 170.3125 82 162.621094 " fill-opacity="1" fill-rule="nonzero"/><g clip-path="url(#6ef69b740e)"><path fill="#636576" d="M 61.800781 241.40625 C 32.023438 241.40625 7.886719 217.269531 7.886719 187.496094 C 7.886719 157.71875 32.023438 133.582031 61.800781 133.582031 C 91.574219 133.582031 115.710938 157.71875 115.710938 187.496094 C 115.710938 217.269531 91.574219 241.40625 61.800781 241.40625 Z M 61.800781 125.691406 C 27.664062 125.691406 -0.00390625 153.363281 -0.00390625 187.496094 C -0.00390625 221.625 27.664062 249.296875 61.800781 249.296875 C 95.929688 249.296875 123.601562 221.625 123.601562 187.496094 C 123.601562 153.363281 95.929688 125.691406 61.800781 125.691406 " fill-opacity="1" fill-rule="nonzero"/></g></svg>