<svg width="25" height="40" viewBox="0 0 40 40" fill="none" xmlns="http://www.w3.org/2000/svg">
<path fill-rule="evenodd" clip-rule="evenodd" d="M17.9288 38.5H8.75C6.67875 38.5 5 36.8213 5 34.75V24.3363C5 22.5238 6.29625 20.9713 8.07875 20.6475C10.7212 20.1663 15.2775 19.3375 17.855 18.87C19.2737 18.6112 20.7263 18.6112 22.145 18.87C24.7225 19.3375 29.2788 20.1663 31.9213 20.6475C33.7038 20.9713 35 22.5238 35 24.3363C35 27.0625 35 31.8325 35 34.75C35 36.8213 33.3212 38.5 31.25 38.5H17.9288ZM29.785 22.8L29.79 22.8063C30.0088 23.1338 30.06 23.545 29.9287 23.9162L29.0462 26.4162C28.9312 26.7425 28.685 27.0075 28.3675 27.1463L26.7075 27.87L27.3675 29.1912C27.5525 29.56 27.5425 29.9962 27.3425 30.3575L24.2075 36H31.25C31.94 36 32.5 35.44 32.5 34.75C32.5 31.8325 32.5 27.0625 32.5 24.3363C32.5 23.7325 32.0675 23.215 31.4738 23.1062L29.785 22.8ZM26.3663 22.1775L21.6975 21.3288C20.575 21.125 19.425 21.125 18.3025 21.3288L13.6337 22.1775L12.6363 23.6738L13.13 25.0713L15.5 26.1037C15.8138 26.2412 16.0575 26.5012 16.175 26.8237C16.2925 27.1462 16.2712 27.5025 16.1175 27.8088L15.1625 29.7188L18.6525 36H21.3475L24.8375 29.7188L23.8825 27.8088C23.7288 27.5025 23.7075 27.1462 23.825 26.8237C23.9425 26.5012 24.1862 26.2412 24.5 26.1037L26.87 25.0713L27.3638 23.6738L26.3663 22.1775ZM10.215 22.8L8.52625 23.1062C7.9325 23.215 7.5 23.7325 7.5 24.3363V34.75C7.5 35.44 8.06 36 8.75 36H15.7925L12.6575 30.3575C12.4575 29.9962 12.4475 29.56 12.6325 29.1912L13.2925 27.87L11.6325 27.1463C11.315 27.0075 11.0688 26.7425 10.9538 26.4162L10.0712 23.9162C9.94 23.545 9.99125 23.1338 10.21 22.8063L10.215 22.8ZM28.75 29.75V32.25C28.75 32.94 29.31 33.5 30 33.5C30.69 33.5 31.25 32.94 31.25 32.25V29.75C31.25 29.06 30.69 28.5 30 28.5C29.31 28.5 28.75 29.06 28.75 29.75ZM20 1C15.5163 1 11.875 4.64125 11.875 9.125C11.875 13.6087 15.5163 17.25 20 17.25C24.4837 17.25 28.125 13.6087 28.125 9.125C28.125 4.64125 24.4837 1 20 1ZM20 3.5C23.105 3.5 25.625 6.02 25.625 9.125C25.625 12.23 23.105 14.75 20 14.75C16.895 14.75 14.375 12.23 14.375 9.125C14.375 6.02 16.895 3.5 20 3.5Z" fill="#993322"/>
</svg>
